<svg width="24" height="27" viewBox="0 0 24 27" fill="none" xmlns="http://www.w3.org/2000/svg">
<rect x="4" y="26" width="16" height="1" rx="0.5" fill="#3F8CFF"/>
<path d="M8.09525 7.34687L8.42065 7.72649V7.72649L8.09525 7.34687ZM15.9047 7.34687L15.5794 7.72649V7.72649L15.9047 7.34687ZM16.9047 8.20401L17.2301 7.82438V7.82438L16.9047 8.20401ZM7.09525 8.20401L6.76986 7.82438V7.82438L7.09525 8.20401ZM18.5 12.7595V16.9999H19.5V12.7595H18.5ZM15 20.4999H9V21.4999H15V20.4999ZM5.5 16.9999V12.7595H4.5V16.9999H5.5ZM7.42065 8.58364L8.42065 7.72649L7.76986 6.96724L6.76986 7.82438L7.42065 8.58364ZM15.5794 7.72649L16.5794 8.58364L17.2301 7.82438L16.2301 6.96724L15.5794 7.72649ZM8.42065 7.72649C9.36213 6.91951 10.0335 6.34529 10.6058 5.96731C11.1664 5.59706 11.5803 5.45117 12 5.45117V4.45117C11.31 4.45117 10.7032 4.70456 10.0547 5.13288C9.41784 5.55347 8.69169 6.17709 7.76986 6.96724L8.42065 7.72649ZM16.2301 6.96724C15.3083 6.17709 14.5822 5.55347 13.9453 5.13288C13.2968 4.70456 12.69 4.45117 12 4.45117V5.45117C12.4197 5.45117 12.8336 5.59706 13.3942 5.96731C13.9665 6.34529 14.6379 6.91951 15.5794 7.72649L16.2301 6.96724ZM9 20.4999C8.04306 20.4999 7.37565 20.4989 6.87208 20.4312C6.3829 20.3654 6.12385 20.2451 5.93934 20.0606L5.23223 20.7677C5.63351 21.169 6.13876 21.3416 6.73883 21.4223C7.32452 21.501 8.07133 21.4999 9 21.4999V20.4999ZM4.5 16.9999C4.5 17.9286 4.49894 18.6754 4.57768 19.2611C4.65836 19.8612 4.83096 20.3664 5.23223 20.7677L5.93934 20.0606C5.75483 19.8761 5.63453 19.617 5.56876 19.1279C5.50106 18.6243 5.5 17.9569 5.5 16.9999H4.5ZM18.5 16.9999C18.5 17.9569 18.4989 18.6243 18.4312 19.1279C18.3655 19.617 18.2452 19.8761 18.0607 20.0606L18.7678 20.7677C19.169 20.3664 19.3416 19.8612 19.4223 19.2611C19.5011 18.6754 19.5 17.9286 19.5 16.9999H18.5ZM15 21.4999C15.9287 21.4999 16.6755 21.501 17.2612 21.4223C17.8612 21.3416 18.3665 21.169 18.7678 20.7677L18.0607 20.0606C17.8762 20.2451 17.6171 20.3654 17.1279 20.4312C16.6244 20.4989 15.9569 20.4999 15 20.4999V21.4999ZM19.5 12.7595C19.5 11.4475 19.5107 10.6367 19.1798 9.91724L18.2713 10.3351C18.4893 10.8091 18.5 11.356 18.5 12.7595H19.5ZM16.5794 8.58364C17.645 9.49703 18.0533 9.86107 18.2713 10.3351L19.1798 9.91724C18.8489 9.1978 18.2263 8.67822 17.2301 7.82438L16.5794 8.58364ZM5.5 12.7595C5.5 11.356 5.51069 10.8091 5.72872 10.3351L4.8202 9.91724C4.48931 10.6367 4.5 11.4475 4.5 12.7595H5.5ZM6.76986 7.82438C5.77371 8.67822 5.1511 9.1978 4.8202 9.91724L5.72872 10.3351C5.94674 9.86107 6.35502 9.49703 7.42065 8.58364L6.76986 7.82438Z" fill="#2675EC"/>
<path d="M14.5 21V16C14.5 15.4477 14.0523 15 13.5 15H10.5C9.94772 15 9.5 15.4477 9.5 16V21" stroke="#2675EC" stroke-linecap="round" stroke-linejoin="round"/>
</svg>
