<svg width="20" height="27" viewBox="0 0 20 27" fill="none" xmlns="http://www.w3.org/2000/svg">
<path d="M5.66009 0.833496C4.21557 0.833496 2.77106 1.38847 1.66264 2.50012C-0.554212 4.72343 -0.554212 8.29502 1.66264 10.5183L2.99512 11.8547C2.97645 11.9466 2.96626 12.0386 2.96626 12.1322C2.96626 12.4795 3.09527 12.7842 3.35667 13.0464L3.96435 13.6575C4.17484 13.9095 4.50753 14.0371 4.84532 14.0457C4.86739 14.3453 4.9913 14.6415 5.22555 14.8764L5.83492 15.4859C6.07257 15.7259 6.35094 15.8502 6.66327 15.8706C6.67176 16.2043 6.79907 16.4988 7.05029 16.7507L7.65797 17.3619C7.86845 17.6138 8.20115 17.7415 8.53724 17.75C8.55591 18.0633 8.67982 18.3408 8.91916 18.5808L9.52854 19.1902C9.78824 19.4524 10.0921 19.5835 10.4401 19.5835C10.7439 19.5835 11.0919 19.4524 11.3516 19.1902L12.6552 17.8828C12.8793 17.6785 12.9998 17.4096 13.0337 17.127C13.3138 17.0929 13.5667 16.9703 13.7857 16.7507L14.5682 15.9659C14.8025 15.731 14.9264 15.4348 14.9484 15.1352C15.2862 15.1267 15.6189 14.999 15.8294 14.747L16.4371 14.1359C16.6815 13.9112 16.8054 13.6098 16.8224 13.3C17.1415 13.2813 17.4555 13.1536 17.6966 12.871L18.3043 12.2616C18.7897 11.8155 18.8186 11.0716 18.401 10.5473C19.411 9.50712 20 8.09414 20 6.59605C20 5.07072 19.4348 3.58965 18.3484 2.54268C16.1316 0.32108 12.5262 0.32108 10.3094 2.50012L9.98345 2.82698L9.65754 2.50012C8.54912 1.38847 7.1046 0.833496 5.66009 0.833496ZM5.66009 1.71533C6.87715 1.71533 8.09421 2.1937 9.04986 3.10958L9.3537 3.4143L7.13855 5.63761C6.35604 6.42241 6.35604 7.68557 7.13855 8.47037C7.52896 8.86191 8.05007 9.08152 8.57119 9.08152C9.0923 9.08152 9.57097 8.90618 9.96308 8.51293L12.5669 5.90148L17.6525 11.0852C17.8273 11.2589 17.8273 11.521 17.6525 11.6964L17.0448 12.3058C16.8716 12.4795 16.6102 12.4795 16.4371 12.3058L13.7857 9.69097C13.6126 9.51733 13.3512 9.51733 13.178 9.69097C13.0049 9.86462 13.0049 10.1268 13.178 10.3004L15.8294 12.9153C16.0025 13.0889 16.0025 13.3511 15.8294 13.5247L15.22 14.1359C15.0469 14.3095 14.7855 14.3095 14.6107 14.1359L12.0034 11.521C11.9117 11.4274 11.7946 11.3882 11.6775 11.3934C11.5621 11.3882 11.4449 11.4274 11.3516 11.521C11.1784 11.6947 11.1784 11.9568 11.3516 12.1322L13.9588 14.747C14.0471 14.8339 14.0912 14.9207 14.0912 15.0501C14.0912 15.1811 14.0471 15.2697 13.9588 15.3565L13.178 16.1396C13.0779 16.24 12.9506 16.2758 12.8283 16.2622C12.7791 16.189 12.7214 16.1192 12.6552 16.0545L12.0475 15.4433C11.8167 15.2118 11.4959 15.096 11.1717 15.0875C11.1547 14.7777 11.0308 14.4661 10.788 14.2227L10.1804 13.6133C9.95629 13.3698 9.65754 13.2438 9.35031 13.2285C9.34182 12.8948 9.21451 12.602 8.9616 12.3501L8.35391 11.7389C8.12306 11.5074 7.80225 11.3916 7.47804 11.3831C7.46106 11.0733 7.33715 10.7618 7.09442 10.5183L6.48674 9.90888C6.00806 9.38625 5.18141 9.38625 4.6603 9.90888L3.46531 11.1074L2.27032 9.90888C0.401443 8.03456 0.401443 4.9839 2.27032 3.10958C3.22597 2.1937 4.44303 1.71533 5.66009 1.71533ZM14.3085 1.75959C15.5239 1.75959 16.7409 2.23796 17.6966 3.15384L17.7407 3.1964C18.6539 4.11228 19.1309 5.28862 19.1309 6.59605C19.1309 7.83027 18.6726 9.02024 17.8018 9.9276L12.9166 5.02645C12.9081 5.01965 12.8979 5.01624 12.8912 5.00943C12.8827 5.00092 12.881 4.9907 12.8725 4.9839C12.6993 4.81025 12.4379 4.81025 12.2648 4.9839L9.3537 7.90347C8.91916 8.33928 8.18078 8.33928 7.74623 7.90347C7.52896 7.68557 7.39826 7.38084 7.39826 7.07612C7.39826 6.77139 7.52896 6.46667 7.74623 6.24876L10.2449 3.74286L10.2652 3.76329L10.917 3.15384C11.8303 2.23796 13.0914 1.75959 14.3085 1.75959ZM5.61765 10.3447C5.70422 10.3447 5.83323 10.3872 5.9198 10.4741L6.52917 11.0852C6.70231 11.2589 6.70231 11.521 6.52917 11.6964L5.22555 13.0038C5.05241 13.1774 4.791 13.1774 4.61617 13.0038L4.00849 12.3926C3.92192 12.3058 3.87948 12.219 3.87948 12.0879C3.87948 11.9568 3.92192 11.87 4.00849 11.7815L5.31212 10.4741C5.39868 10.3872 5.48695 10.3447 5.61765 10.3447ZM7.4407 12.2173C7.5714 12.2173 7.65966 12.2616 7.74623 12.3501L8.35391 12.9595C8.44048 13.0464 8.48462 13.1332 8.48462 13.2643C8.48462 13.3953 8.44048 13.4822 8.35391 13.569L7.05029 14.8764C6.87715 15.0501 6.61574 15.0501 6.44261 14.8764L5.83492 14.267C5.66009 14.0933 5.66009 13.8312 5.83492 13.6575L7.13855 12.3501C7.22512 12.2616 7.31169 12.2173 7.4407 12.2173ZM9.28411 14.0491C9.39784 14.0491 9.50647 14.0916 9.57097 14.1784L10.1804 14.7896C10.3535 14.9632 10.3535 15.2254 10.1804 15.4008L8.87672 16.7082C8.70189 16.8818 8.44048 16.8818 8.26735 16.7082L7.65797 16.097C7.5714 16.0102 7.52896 15.9234 7.52896 15.7923C7.52896 15.6612 7.5714 15.5744 7.65797 15.4859L8.9616 14.1784C9.04986 14.0916 9.16868 14.0491 9.28411 14.0491ZM11.1343 15.9217C11.265 15.9217 11.3533 15.9659 11.4398 16.0545L12.0475 16.6639C12.1341 16.7507 12.1782 16.8376 12.1782 16.9686C12.1782 17.0997 12.1341 17.1865 12.0475 17.2734L10.7439 18.5808C10.5708 18.7544 10.3094 18.7544 10.1362 18.5808L9.52854 17.9713C9.44027 17.8845 9.39614 17.796 9.39614 17.6649C9.39614 17.5355 9.44027 17.4487 9.52854 17.3619L10.8322 16.0545C10.9187 15.9659 11.0053 15.9217 11.1343 15.9217Z" fill="#2675EC"/>
<rect x="2" y="26" width="16" height="1" rx="0.5" fill="#3F8CFF"/>
</svg>
