<svg width="24" height="24" viewBox="0 0 24 24" fill="none" xmlns="http://www.w3.org/2000/svg">
<circle cx="12" cy="12" r="12" fill="white"/>
<path d="M5.25 12C5.25 9.4287 5.25 8.14305 5.81909 7.19359C6.15726 6.62937 6.62937 6.15726 7.19359 5.81909C8.14305 5.25 9.4287 5.25 12 5.25V5.25C14.5713 5.25 15.8569 5.25 16.8064 5.81909C17.3706 6.15726 17.8427 6.62937 18.1809 7.19359C18.75 8.14305 18.75 9.4287 18.75 12V12C18.75 14.5713 18.75 15.8569 18.1809 16.8064C17.8427 17.3706 17.3706 17.8427 16.8064 18.1809C15.8569 18.75 14.5713 18.75 12 18.75V18.75C9.4287 18.75 8.14305 18.75 7.19359 18.1809C6.62937 17.8427 6.15726 17.3706 5.81909 16.8064C5.25 15.8569 5.25 14.5713 5.25 12V12Z" stroke="#2675EC"/>
<path fill-rule="evenodd" clip-rule="evenodd" d="M16.7481 13.0452C16.6358 12.9386 16.5372 12.853 16.4372 12.7827C15.5749 12.1769 14.4251 12.1769 13.5628 12.7827C13.3848 12.9078 13.2114 13.0813 12.9569 13.3359L12.9208 13.372C12.6951 13.5977 12.6406 13.6478 12.6074 13.6692C12.383 13.8132 12.0851 13.7558 11.9303 13.5388C11.9074 13.5066 11.8754 13.4398 11.7496 13.1464L11.7096 13.0529L11.7048 13.0419C11.5595 12.7027 11.4438 12.4329 11.3418 12.2211C11.2388 12.0073 11.1361 11.8233 11.0084 11.6676C10.2444 10.736 8.92468 10.4819 7.86935 11.0631C7.69301 11.1602 7.52931 11.2929 7.35424 11.4532C7.32087 11.4838 7.28623 11.5161 7.25018 11.5503C7.25003 11.6939 7.25 11.8437 7.25 11.9999C7.25 12.3496 7.25014 12.6665 7.25147 12.9555L7.41097 12.796C7.68234 12.5247 7.87437 12.3328 8.02947 12.1908C8.18473 12.0487 8.27944 11.9789 8.35176 11.939C8.98496 11.5903 9.77681 11.7428 10.2352 12.3018C10.2876 12.3656 10.3496 12.4656 10.4409 12.6552C10.5322 12.8447 10.6393 13.0941 10.7904 13.4469L10.8305 13.5403L10.8519 13.5904L10.8519 13.5904C10.944 13.8057 11.0212 13.9864 11.1163 14.1196C11.5808 14.7706 12.4744 14.9427 13.1475 14.5108C13.2852 14.4224 13.424 14.2833 13.5894 14.1176L13.6279 14.0791C13.9322 13.7748 14.0402 13.6694 14.1377 13.601C14.6551 13.2374 15.3449 13.2374 15.8623 13.601C15.9598 13.6694 16.0678 13.7748 16.3721 14.0791L16.7165 14.4235C16.737 14.0443 16.745 13.5967 16.7481 13.0452Z" fill="#2675EC"/>
<circle cx="15.375" cy="8.625" r="1.125" fill="#2675EC"/>
<circle cx="17.25" cy="17.25" r="3.75" fill="white"/>
<path d="M17.25 15.375L17.25 19.125" stroke="#2675EC" stroke-width="0.8" stroke-linecap="round"/>
<path d="M19.125 17.25L15.375 17.25" stroke="#2675EC" stroke-width="0.8" stroke-linecap="round"/>
</svg>
