<svg width="24" height="24" viewBox="0 0 24 24" fill="none" xmlns="http://www.w3.org/2000/svg">
<circle cx="12" cy="10" r="3" stroke="#C7C9D9" stroke-linecap="round"/>
<circle cx="12" cy="12" r="9" stroke="#C7C9D9"/>
<path d="M17.5256 18.8638C17.6128 19.1258 17.8959 19.2675 18.1579 19.1803C18.4199 19.0931 18.5616 18.81 18.4744 18.548L17.5256 18.8638ZM5.52559 18.548C5.43838 18.81 5.58007 19.0931 5.84208 19.1803C6.10409 19.2675 6.38719 19.1258 6.47441 18.8638L5.52559 18.548ZM18.4744 18.548C18.0784 17.3584 17.2141 16.3305 16.0442 15.6078L15.5187 16.4586C16.5184 17.0761 17.2138 17.9271 17.5256 18.8638L18.4744 18.548ZM16.0442 15.6078C14.8746 14.8855 13.4532 14.5 12 14.5V15.5C13.2816 15.5 14.5185 15.8409 15.5187 16.4586L16.0442 15.6078ZM12 14.5C10.5468 14.5 9.12538 14.8855 7.95584 15.6078L8.48133 16.4586C9.48145 15.8409 10.7184 15.5 12 15.5V14.5ZM7.95584 15.6078C6.78586 16.3305 5.9216 17.3584 5.52559 18.548L6.47441 18.8638C6.78622 17.9271 7.48165 17.0761 8.48133 16.4586L7.95584 15.6078Z" fill="#C7C9D9"/>
</svg>
